#!OML:ASF H:\MichaelJackson\Top Level 1\Subject 1\Session 1\male.ASF
:FULLY-SPECIFIED
:DEGREES
1268
root 7.88446 17.283 18.4658 -349.163 -3.91627 -2.21845
lowerback 2.02616 -0.783573 3.41117
upperback -1.34239 -0.981886 -1.77855
thorax -2.60811 -0.568494 -3.70667
lowerneck -6.51068 2.0061 4.59574
upperneck 23.0406 2.03422 0.0947
head 8.25897 1.34288 -0.56618
rclavicle 7.45443e-015 5.56597e-015
rhumerus -173.583 200.089 -177.147
rradius 101.501
rwrist -37.7925
rhand -7.06007 -7.95453
rfingers 7.12502
rthumb 18.813 -397.065
lclavicle 7.45443e-015 5.56597e-015
lhumerus -47.4331 -5.59682 77.2347
lradius 36.3265
lwrist 0.171244
lhand -0.698637 12.3876
lfingers 7.12502
lthumb 24.921 40.7828
rfemur -30.4632 -12.4952 24.3585
rtibia 47.3014
rfoot -6.78191 -9.77122
rtoes -8.68811
lfemur -27.3583 5.07993 -10.3747
ltibia 42.1338
lfoot -11.8195 -2.36818
ltoes 44.8344
1269
root 7.82328 17.341 18.4946 -349.244 -3.20895 -2.37934
lowerback 1.72925 -0.879064 3.53236
upperback -1.34498 -1.11149 -1.63405
thorax -2.45473 -0.630891 -3.6233
lowerneck -6.46066 1.82735 4.48995
upperneck 23.1052 1.79335 0.147842
head 8.26361 1.22668 -0.552792
rclavicle 2.77305e-014 4.77083e-015
rhumerus -173.894 199.977 -177.31
rradius 101.882
rwrist -37.2608
rhand -7.4822 -8.3082
rfingers 7.12502
rthumb 18.407 -397.457
lclavicle 2.77305e-014 4.77083e-015
lhumerus -48.0811 -6.09027 78.3262
lradius 37.025
lwrist 0.503276
lhand 0.00449584 12.4197
lfingers 7.12502
lthumb 25.5947 40.7198
rfemur -29.4642 -11.0581 23.8693
rtibia 46.297
rfoot -6.10484 -8.40364
rtoes -9.6727
lfemur -27.6289 4.15181 -11.1
ltibia 42.452
lfoot -11.2143 -4.31304
ltoes 44.306
1270
root 7.7641 17.3913 18.5252 -349.3 -2.49764 -2.52142
lowerback 1.39151 -0.961105 3.64855
upperback -1.36599 -1.2259 -1.49364
thorax -2.29595 -0.685829 -3.54368
lowerneck -6.42827 1.6318 4.3727
upperneck 23.1989 1.52871 0.204848
head 8.28108 1.09909 -0.537989
rclavicle -1.90833e-014 -1.59028e-014
rhumerus -174.222 199.865 -177.507
rradius 102.277
rwrist -36.7771
rhand -8.04703 -8.75964
rfingers 7.12502
rthumb 17.8636 -397.959
lclavicle -1.90833e-014 -1.59028e-014
lhumerus -48.6999 -6.54632 79.4158
lradius 37.6807
lwrist 0.705413
lhand 0.728508 12.4296
lfingers 7.12502
lthumb 26.288 40.6282
rfemur -28.5135 -9.87415 23.461
rtibia 45.293
rfoot -5.62802 -7.0307
rtoes -10.5077
lfemur -27.8765 3.24247 -11.8394
ltibia 42.7124
lfoot -10.5532 -6.00034
ltoes 43.8996
1271
root 7.70687 17.4343 18.5574 -349.336 -1.8185 -2.66302
lowerback 1.02199 -1.01546 3.76472
upperback -1.40459 -1.30569 -1.35275
thorax -2.13431 -0.723652 -3.46635
lowerneck -6.41008 1.42022 4.24413
upperneck 23.3185 1.24098 0.26806
head 8.30983 0.960681 -0.521057
rclavicle 1.09332e-015 -2.38542e-015
rhumerus -174.57 199.76 -177.756
rradius 102.692
rwrist -36.268
rhand -8.76329 -9.28516
rfingers 7.12502
rthumb 17.1743 -398.546
lclavicle 1.09332e-015 -2.38542e-015
lhumerus -49.2878 -6.95418 80.4983
lradius 38.2994
lwrist 0.839455
lhand 1.46168 12.4154
lfingers 7.12502
lthumb 26.9897 40.5074
rfemur -27.6132 -8.95753 23.1608
rtibia 44.306
rfoot -5.313 -5.69701
rtoes -11.2193
lfemur -28.0788 2.37796 -12.5686
ltibia 42.9083
lfoot -9.88202 -7.40972
ltoes 43.5935
1272
root 7.65143 17.47 18.591 -349.353 -1.20496 -2.82066
lowerback 0.625301 -1.03245 3.8836
upperback -1.45792 -1.33776 -1.20632
thorax -1.9683 -0.737714 -3.38747
lowerneck -6.41018 1.19614 4.10129
upperneck 23.4588 0.934935 0.339174
head 8.34908 0.813584 -0.500557
rclavicle 1.37161e-014 -3.18055e-015
rhumerus -174.929 199.675 -178.088
rradius 103.126
rwrist -35.6459
rhand -9.62137 -9.87198
rfingers 7.12502
rthumb 16.3482 -399.203
lclavicle 1.37161e-014 -3.18055e-015
lhumerus -49.8459 -7.29345 81.5641
lradius 38.8931
lwrist 0.969724
lhand 2.16999 12.3999
lfingers 7.12502
lthumb 27.6671 40.3851
rfemur -26.7686 -8.28214 22.9843
rtibia 43.3486
rfoot -5.10871 -4.44429
rtoes -11.8339
lfemur -28.2298 1.58323 -13.2636
ltibia 43.0399
lfoot -9.24793 -8.59381
ltoes 43.3481
1273
root 7.59749 17.4988 18.6254 -349.357 -0.680963 -3.01265
lowerback 0.212844 -1.00817 4.01071
upperback -1.52269 -1.31648 -1.04891
thorax -1.80055 -0.725206 -3.30379
lowerneck -6.41954 0.965081 3.95487
upperneck 23.6056 0.619498 0.407911
head 8.39287 0.66176 -0.48108
rclavicle 3.08116e-014 -3.18055e-015
rhumerus -175.289 199.615 -178.534
rradius 103.584
rwrist -34.8292
rhand -10.6328 -10.4986
rfingers 7.12502
rthumb 15.3742 -399.907
lclavicle 3.08116e-014 -3.18055e-015
lhumerus -50.3862 -7.55133 82.6044
lradius 39.4749
lwrist 1.16421
lhand 2.79571 12.3599
lfingers 7.12502
lthumb 28.2653 40.2476
rfemur -25.9741 -7.79213 22.9372
rtibia 42.4279
rfoot -4.99355 -3.28902
rtoes -12.221
lfemur -28.3234 0.862765 -13.8941
ltibia 43.1096
lfoot -8.70962 -9.63978
ltoes 43.1475
1274
root 7.54477 17.5212 18.6601 -349.343 -0.268858 -3.24352
lowerback -0.21009 -0.941145 4.1437
upperback -1.59936 -1.23992 -0.88075
thorax -1.63436 -0.685183 -3.21324
lowerneck -6.43745 0.732482 3.80518
upperneck 23.7479 0.302647 0.472945
head 8.43752 0.508696 -0.462464
rclavicle 3.37934e-015 -3.97569e-015
rhumerus -175.645 199.578 -179.12
rradius 104.068
rwrist -33.7663
rhand -11.8031 -11.1749
rfingers 7.12502
rthumb 14.2468 -400.666
lclavicle 3.37934e-015 -3.97569e-015
lhumerus -50.9195 -7.72082 83.612
lradius 40.0508
lwrist 1.47773
lhand 3.2745 12.3038
lfingers 7.12502
lthumb 28.7228 40.1149
rfemur -25.2351 -7.42337 23.0057
rtibia 41.5471
rfoot -4.95055 -2.22346
rtoes -12.3916
lfemur -28.3767 0.213217 -14.4444
ltibia 43.1234
lfoot -8.28939 -10.6696
ltoes 43.0254
1275
root 7.49297 17.5377 18.6945 -349.319 0.0232836 -3.51382
lowerback -0.633726 -0.835564 4.27825
upperback -1.68165 -1.11349 -0.702348
thorax -1.46934 -0.620181 -3.11278
lowerneck -6.45957 0.502605 3.65595
upperneck 23.8686 -0.00963693 0.53359
head 8.47645 0.357171 -0.445073
rclavicle -9.14409e-015 -7.95139e-016
rhumerus -175.994 199.562 -179.868
rradius 104.587
rwrist -32.4508
rhand -13.1203 -11.9063
rfingers 7.12502
rthumb 12.9772 -401.483
lclavicle -9.14409e-015 -7.95139e-016
lhumerus -51.4609 -7.79016 84.5753
lradius 40.6328
lwrist 1.93065
lhand 3.55697 12.2197
lfingers 7.12502
lthumb 28.9926 39.9847
rfemur -24.5389 -7.09866 23.1665
rtibia 40.7057
rfoot -4.97911 -1.23187
rtoes -12.4031
lfemur -28.3908 -0.382257 -14.9044
ltibia 43.0872
lfoot -8.00016 -11.7967
ltoes 42.9587
1276
root 7.4416 17.5485 18.7282 -349.286 0.199726 -3.80812
lowerback -1.04957 -0.701646 4.39889
upperback -1.76726 -0.95059 -0.521126
thorax -1.30903 -0.5368 -3.0003
lowerneck -6.48917 0.280302 3.51439
upperneck 23.963 -0.311638 0.589164
head 8.50881 0.210311 -0.429836
rclavicle 2.38542e-015 -3.97569e-015
rhumerus -176.335 199.55 -180.794
rradius 105.146
rwrist -30.905
rhand -14.6071 -12.7202
rfingers 7.12502
rthumb 11.5437 -402.382
lclavicle 2.38542e-015 -3.97569e-015
lhumerus -52.0212 -7.76287 85.4843
lradius 41.2259
lwrist 2.53392
lhand 3.57463 12.0539
lfingers 7.12502
lthumb 29.0095 39.816
rfemur -23.8773 -6.74456 23.3807
rtibia 39.9006
rfoot -5.09065 -0.292473
rtoes -12.2423
lfemur -28.3754 -0.948695 -15.2818
ltibia 43.0112
lfoot -7.83151 -13.1245
ltoes 42.9277
1277
root 7.39026 17.5537 18.7605 -349.247 0.273919 -4.10868
lowerback -1.44916 -0.549875 4.48971
upperback -1.85209 -0.764609 -0.34295
thorax -1.15518 -0.441583 -2.87229
lowerneck -6.5259 0.0669138 3.37923
upperneck 24.0181 -0.601635 0.642515
head 8.5299 0.0688428 -0.415401
rclavicle -1.62506e-014 -3.97569e-016
rhumerus -176.682 199.526 -181.894
rradius 105.759
rwrist -29.2228
rhand -16.2427 -13.6456
rfingers 7.12502
rthumb 9.966 -403.39
lclavicle -1.62506e-014 -3.97569e-016
lhumerus -52.6056 -7.64593 86.3349
lradius 41.8325
lwrist 3.26432
lhand 3.34505 11.8075
lfingers 7.12502
lthumb 28.7902 39.6072
rfemur -23.2447 -6.3085 23.612
rtibia 39.1297
rfoot -5.28956 0.592064
rtoes -11.9614
lfemur -28.3445 -1.51247 -15.5903
ltibia 42.9125
lfoot -7.76813 -14.6966
ltoes 42.8968
1278
root 7.33875 17.5532 18.7911 -349.207 0.270399 -4.39864
lowerback -1.82141 -0.394075 4.54112
upperback -1.93455 -0.572933 -0.174363
thorax -1.0141 -0.343325 -2.72984
lowerneck -6.57123 -0.134048 3.25865
upperneck 24.0318 -0.874945 0.689296
head 8.53929 -0.0648141 -0.404174
rclavicle 7.15625e-015 6.75868e-015
rhumerus -177.047 199.466 -183.158
rradius 106.438
rwrist -27.4918
rhand -18.0229 -14.7021
rfingers 7.12502
rthumb 8.24827 -404.521
lclavicle 7.15625e-015 6.75868e-015
lhumerus -53.2232 -7.45093 87.1239
lradius 42.4582
lwrist 4.08978
lhand 2.89407 11.498
lfingers 7.12502
lthumb 28.3593 39.3701
rfemur -22.6299 -5.77474 23.8358
rtibia 38.3913
rfoot -5.5973 1.3757
rtoes -11.5831
lfemur -28.309 -2.10358 -15.8449
ltibia 42.8148
lfoot -7.80594 -16.3144
ltoes 43.0408
1279
root 7.287 17.5475 18.8195 -349.168 0.216336 -4.66205
lowerback -2.16079 -0.245596 4.54627
upperback -2.01404 -0.389753 -0.0221514
thorax -0.889672 -0.249215 -2.57636
lowerneck -6.62759 -0.323588 3.15356
upperneck 24.0025 -1.13447 0.735514
head 8.53667 -0.191422 -0.394533
rclavicle 1.2275e-014 -1.03368e-014
rhumerus -177.451 199.342 -184.573
rradius 107.186
rwrist -25.7924
rhand -19.9457 -15.8747
rfingers 7.12502
rthumb 6.3922 -405.758
lclavicle 1.2275e-014 -1.03368e-014
lhumerus -53.86 -7.19112 87.8488
lradius 43.0796
lwrist 4.95928
lhand 2.27348 11.1473
lfingers 7.12502
lthumb 27.7661 39.1166
rfemur -22.0364 -5.16984 24.0388
rtibia 37.6892
rfoot -5.96826 2.09475
rtoes -10.7405
lfemur -28.2657 -2.75077 -16.0596
ltibia 42.7457
lfoot -7.96168 -17.7123
ltoes 43.596
1280
root 7.2353 17.5377 18.8457 -349.132 0.134808 -4.89221
lowerback -2.46282 -0.112716 4.50705
upperback -2.08803 -0.225337 0.112258
thorax -0.78278 -0.164427 -2.41491
lowerneck -6.69742 -0.501834 3.066
upperneck 23.9329 -1.37952 0.775866
head 8.52326 -0.310963 -0.38854
rclavicle 4.02539e-015 3.97569e-016
rhumerus -177.907 199.13 -186.121
rradius 108.004
rwrist -24.1785
rhand -22.0463 -17.1251
rfingers 7.12502
rthumb 4.36407 -407.06
lclavicle 4.02539e-015 3.97569e-016
lhumerus -54.512 -6.88236 88.5196
lradius 43.685
lwrist 5.86339
lhand 1.47357 10.7433
lfingers 7.12502
lthumb 27.001 38.8335
rfemur -21.4685 -4.56708 24.2268
rtibia 37.0285
rfoot -6.42223 2.75543
rtoes -9.73286
lfemur -28.2103 -3.47 -16.2397
ltibia 42.7305
lfoot -8.35666 -18.5859
ltoes 44.3205
1281
root 7.18395 17.523 18.8694 -349.101 0.0498115 -5.08696
lowerback -2.72936 -0.00236991 4.42905
upperback -2.15635 -0.0886248 0.230369
thorax -0.692892 -0.0934859 -2.24776
lowerneck -6.77598 -0.669472 2.999
upperneck 23.8233 -1.6093 0.80217
head 8.49808 -0.423646 -0.389335
rclavicle 1.67476e-014 -1.86858e-014
rhumerus -178.428 198.813 -187.782
rradius 108.888
rwrist -22.6793
rhand -24.32 -18.4122
rfingers 7.12502
rthumb 2.16829 -408.381
lclavicle 1.67476e-014 -1.86858e-014
lhumerus -55.1557 -6.52082 89.1288
lradius 44.2441
lwrist 6.70748
lhand 0.594516 10.2851
lfingers 7.12502
lthumb 26.1597 38.5028
rfemur -20.934 -4.02029 24.4056
rtibia 36.4203
rfoot -6.95132 3.37177
rtoes -8.39721
lfemur -28.1524 -4.2565 -16.3896
ltibia 42.7857
lfoot -8.9993 -18.7027
ltoes 45.1362
